<svg version="1.1" id="Layer_1" xmlns="http://www.w3.org/2000/svg" xmlns:xlink="http://www.w3.org/1999/xlink"
	viewBox="255 176 600 620">
<path fill="currentColor" opacity="1.000000" stroke="none" 
	d="
M551.001099,793.318665 
	C487.686676,792.355835 430.404358,774.769592 380.716217,735.575867 
	C349.193695,710.711182 324.842804,680.116028 313.145966,641.132751 
	C299.614563,596.034973 303.002655,552.390076 327.543304,511.309662 
	C331.274841,505.063202 330.466614,502.733154 323.393738,500.317963 
	C299.989471,492.325928 279.374146,479.881836 262.106781,462.069672 
	C261.207306,461.141785 259.999695,460.379730 259.966187,458.469818 
	C262.083527,457.069580 264.620117,457.719330 266.977539,457.704132 
	C306.161133,457.451111 345.009430,454.134369 383.152344,444.710938 
	C401.881317,440.083832 419.293335,432.165558 435.898743,422.451965 
	C440.872772,419.542267 445.557159,416.188538 449.462982,411.514374 
	C446.992706,409.442963 445.238342,410.963654 443.611725,411.728638 
	C419.953278,422.855408 395.033356,430.014526 369.426025,434.715942 
	C350.156860,438.253662 330.722260,440.779297 311.171936,442.432220 
	C291.955902,444.056885 272.773010,446.089722 253.468002,446.287415 
	C245.009476,446.374054 241.971695,442.482117 244.245834,434.292175 
	C254.220840,398.368652 268.749054,364.588013 291.650024,334.825409 
	C307.782898,313.858734 328.346130,298.233185 351.366272,285.597992 
	C373.846039,273.259430 396.958954,262.061890 418.725006,248.438248 
	C438.076721,236.325790 457.146118,223.799255 474.978180,209.478149 
	C477.951813,207.090027 481.192627,204.969208 484.521881,203.102966 
	C491.394867,199.250229 497.192841,201.280640 500.242096,208.625397 
	C504.741211,219.462357 506.468414,230.991592 508.294647,242.481796 
	C510.725342,257.775146 511.312317,273.228973 512.310547,288.647125 
	C512.395264,289.956177 512.316772,291.357452 513.893616,292.130005 
	C515.986450,291.808685 516.520996,289.818268 517.471741,288.385986 
	C521.534302,282.265289 526.196716,276.616119 530.740295,270.860596 
	C535.446289,264.899414 541.362488,261.706909 548.867371,260.613586 
	C557.424377,259.366974 566.013306,258.559998 574.606445,257.727356 
	C577.393799,257.457245 579.972107,257.804535 581.229004,260.894684 
	C582.502808,264.026703 583.697632,266.938812 581.007751,270.175476 
	C576.903748,275.113861 573.167053,280.357452 569.031006,285.791199 
	C572.232178,287.263031 573.667847,285.264313 575.245667,284.115479 
	C582.650269,278.724182 590.081665,273.363312 597.335510,267.773468 
	C602.531189,263.769623 608.333008,262.156128 614.674011,262.984985 
	C622.444641,264.000671 630.315613,263.161346 638.057678,264.623657 
	C641.562378,265.285583 645.307129,265.404358 646.169373,269.779694 
	C647.117371,274.589752 648.909485,279.617706 642.952515,282.998688 
	C639.496582,284.960144 636.393677,287.560242 633.207703,289.973083 
	C631.833130,291.014099 629.895691,291.685120 629.823364,294.124481 
	C632.215454,295.550507 634.350342,294.104523 636.365295,293.342072 
	C643.526855,290.632172 650.680969,287.879364 657.703491,284.832916 
	C663.244507,282.429199 668.590515,281.865387 674.612183,283.297546 
	C683.831238,285.490112 693.075867,287.519562 702.106750,290.423492 
	C708.329651,292.424500 707.914124,293.062958 709.265076,301.905273 
	C710.022400,306.862061 706.497009,308.432129 702.856262,310.094971 
	C697.366150,312.602478 691.175232,313.698730 685.670715,318.390198 
	C694.666870,319.362457 702.752869,318.056488 710.695496,317.180878 
	C721.716675,315.965851 731.736145,316.878326 741.134216,323.397614 
	C748.106445,328.234131 755.444519,332.554199 762.192261,337.734924 
	C766.776917,341.254822 767.113708,343.498718 764.974915,351.069183 
	C763.707947,355.554016 760.518188,356.096252 756.564575,356.429779 
	C752.026062,356.812683 747.317322,356.736877 742.993958,358.569702 
	C742.978333,361.198639 744.715515,361.382507 746.325745,361.777649 
	C754.393127,363.757263 762.427734,365.880005 770.528564,367.710205 
	C775.057678,368.733459 778.924133,370.524292 782.094421,374.063446 
	C789.889404,382.765564 797.055725,391.953125 803.824463,401.458221 
	C805.782349,404.207611 804.908447,416.628479 802.622498,418.663269 
	C800.895142,420.200775 798.795349,419.327698 796.875122,419.018188 
	C793.434692,418.463623 790.022827,417.733368 786.587036,417.146729 
	C786.201050,417.080811 785.737793,417.467560 785.210449,417.685699 
	C785.943237,420.354401 788.361084,421.125916 790.183228,422.366638 
	C794.721436,425.456696 799.321899,428.477539 804.066589,431.235046 
	C808.026245,433.536255 810.630371,436.739685 812.201233,440.965637 
	C816.377808,452.202118 820.438232,463.476990 823.675049,475.027893 
	C825.669373,482.144409 820.644653,490.720428 814.157593,491.203217 
	C812.201904,493.777832 814.036865,496.387207 814.530029,498.776978 
	C819.131470,521.076355 820.177979,543.478027 818.497253,566.207642 
	C815.826782,602.320312 806.081604,636.225952 788.225586,667.649536 
	C761.185364,715.235779 721.829529,749.114441 671.703491,770.687012 
	C644.741943,782.290344 616.437927,788.823242 587.394714,792.114807 
	C575.512329,793.461426 563.492676,793.711670 551.001099,793.318665 
M578.799133,539.645874 
	C586.205505,544.765320 591.863892,551.471680 596.365417,559.187134 
	C608.374329,579.770386 604.835022,605.109497 588.055237,620.967896 
	C574.166321,634.094116 546.093689,637.087402 534.128906,621.188416 
	C533.249756,620.020081 532.089661,618.578369 530.396484,619.577637 
	C528.547302,620.668884 529.801025,622.308716 530.295654,623.574951 
	C535.755737,637.552551 547.086609,643.677063 561.048462,644.487061 
	C586.103394,645.940613 605.776978,635.695007 619.073364,614.346863 
	C628.575195,599.091064 631.250916,582.286011 628.782776,564.466125 
	C625.220825,538.749268 613.230103,517.993347 592.768127,502.196838 
	C568.143616,483.186829 539.834717,475.153137 509.050842,474.218170 
	C475.912201,473.211700 444.948792,480.112671 416.776825,498.071259 
	C360.518250,533.934021 339.533020,596.816467 359.349243,657.168030 
	C373.060913,698.927856 402.588684,727.577087 440.590057,748.002319 
	C477.662262,767.928040 517.412354,774.078308 558.983643,769.743225 
	C588.404907,766.675232 615.827576,757.610291 640.895569,741.749573 
	C643.607056,740.033936 646.429016,738.395203 649.467224,734.856506 
	C634.665466,738.867554 621.018188,741.387939 607.073486,742.524902 
	C572.233643,745.365540 538.249329,742.461792 505.908081,728.173462 
	C481.158569,717.239075 460.330353,701.610779 445.778931,678.182007 
	C423.391357,642.136414 425.637909,594.651978 452.355591,561.763062 
	C469.092468,541.160278 490.767487,528.803162 517.407166,525.546204 
	C539.351807,522.863281 559.780762,526.519165 578.799133,539.645874 
M489.292847,409.774597 
	C508.308533,392.735504 530.180603,384.812408 555.865234,388.594421 
	C587.033386,393.183868 612.748596,407.601410 633.009277,431.560883 
	C644.889343,445.609711 644.779114,450.185852 634.430176,465.461121 
	C629.381897,472.912476 624.385010,480.388336 618.256226,487.025513 
	C616.655457,488.759094 615.569763,490.602356 617.972839,492.540924 
	C620.497437,494.577484 622.248108,493.309875 623.716797,491.089325 
	C624.175781,490.395416 624.560242,489.652557 625.012146,488.953644 
	C644.933533,458.149384 679.377380,449.641296 711.155273,468.081787 
	C734.761780,481.780548 749.058044,503.042786 758.168640,528.199585 
	C762.316833,539.653931 764.937012,551.474426 766.486755,563.560303 
	C766.896606,566.755920 767.226807,570.200745 771.527405,571.237793 
	C777.988464,572.795776 784.340393,574.800354 790.779114,576.458435 
	C794.829163,577.501404 797.194031,575.844177 797.613708,571.577576 
	C799.676819,550.601013 799.169250,529.687622 795.309265,508.963867 
	C787.153259,465.174164 768.919800,426.069153 740.235107,391.896240 
	C709.291199,355.031860 670.041565,331.076691 624.247803,317.400665 
	C607.952637,312.534180 591.200256,310.259277 574.226074,308.985107 
	C554.345398,307.492798 534.713196,308.624207 515.145081,312.132263 
	C512.251038,312.651062 510.806458,314.143402 510.316406,316.971741 
	C506.370667,339.745270 498.129303,360.831268 485.420807,380.160767 
	C484.331879,381.817047 483.122894,383.553467 483.440674,385.690216 
	C484.514984,392.914337 482.847626,399.840820 481.639404,406.884827 
	C481.065765,410.228912 478.681610,413.556183 480.377838,417.537048 
	C484.208984,415.923553 485.940063,412.440521 489.292847,409.774597 
M580.582520,580.122681 
	C578.851196,572.338501 575.817383,565.278809 569.888000,559.640442 
	C553.861389,544.400330 526.872253,541.858154 506.167084,553.737427 
	C477.736908,570.048828 463.131561,603.204895 469.801147,635.683777 
	C475.660217,664.215759 492.101349,685.292542 516.264709,700.316711 
	C551.940125,722.498535 590.884216,728.534302 631.859497,720.467224 
	C671.170044,712.727905 701.306213,691.280029 720.991943,656.379028 
	C739.779907,623.069641 745.468018,586.980957 739.463867,549.312866 
	C736.004944,527.613037 727.115540,508.224945 710.785095,492.890045 
	C700.942566,483.647491 689.302551,477.942841 675.659668,478.570374 
	C658.852051,479.343536 646.205627,487.809814 636.945251,501.769287 
	C634.598694,505.306549 634.726318,507.950470 637.272583,511.134094 
	C641.032227,515.834717 643.776733,521.189514 646.355896,526.611450 
	C656.860901,548.695190 660.621155,571.917664 657.188904,596.091125 
	C654.438965,615.458740 647.085815,632.984436 633.533997,647.426147 
	C619.249329,662.648804 601.493103,670.694824 580.729614,672.713379 
	C554.608032,675.252808 532.595764,667.832336 516.522888,646.452881 
	C502.358337,627.611816 503.383759,602.983643 518.735474,587.378723 
	C537.081787,568.729736 564.609253,572.532776 573.757629,596.472961 
	C574.204895,597.643250 574.416931,599.186829 576.702026,599.153931 
	C581.079712,593.916870 580.806458,587.444031 580.582520,580.122681 
M490.073547,459.500854 
	C509.470398,456.570587 528.854065,456.915955 548.149902,460.200867 
	C564.681824,463.015228 580.267456,468.755463 594.922607,476.864868 
	C598.269775,478.717010 600.302368,478.291687 602.425293,475.321442 
	C605.230713,471.396454 608.506836,467.795807 611.167908,463.782104 
	C618.409912,452.859222 617.312500,444.921326 608.007202,435.779633 
	C593.630310,421.655426 576.087341,413.546661 556.704224,409.595001 
	C542.844849,406.769470 528.938232,407.175873 515.794617,413.806091 
	C499.549194,422.000977 489.702332,436.136047 480.736420,451.102142 
	C479.527771,453.119629 477.352203,455.262360 478.891632,457.944519 
	C480.594208,460.910858 483.623230,459.587921 486.174805,459.666260 
	C487.171692,459.696838 488.171967,459.616608 490.073547,459.500854 
M361.447449,372.722107 
	C370.909790,371.938843 378.075012,364.925415 377.497986,357.011536 
	C376.940002,349.359528 369.121521,342.249084 361.253174,342.237854 
	C352.338074,342.225128 345.763947,348.177521 345.345123,356.641541 
	C344.903595,365.563263 350.971222,371.950012 361.447449,372.722107 
z"/>
<path fill="currentColor" opacity="1.000000" stroke="none" 
	d="
M577.380127,703.996582 
	C567.549133,701.708618 557.921631,700.238342 548.111328,695.448425 
	C637.345276,693.845825 695.411255,652.325562 720.732849,566.709717 
	C723.136047,568.842712 723.070740,571.920593 723.104492,574.401245 
	C723.774475,623.684204 708.326965,665.043884 663.949280,691.442322 
	C649.775513,699.873718 633.907837,703.540466 617.507690,705.473267 
	C604.114197,707.051697 590.997864,705.584839 577.380127,703.996582 
z"/>
</svg>