<?xml version="1.0" encoding="UTF-8"?>
<svg id="a" data-name="Layer 1" xmlns="http://www.w3.org/2000/svg" width="400" height="400" viewBox="0 0 400 400">
  <path d="M200,0C89.543,0,0,89.543,0,200s89.543,200,200,200,200-89.543,200-200S310.457,0,200,0ZM315.054,315.054c-30.732,30.732-71.592,47.657-115.054,47.657s-84.322-16.925-115.054-47.657c-30.732-30.732-47.657-71.592-47.657-115.054s16.925-84.322,47.657-115.054c30.732-30.732,71.592-47.657,115.054-47.657s84.322,16.925,115.054,47.657c30.732,30.732,47.657,71.592,47.657,115.054s-16.925,84.322-47.657,115.054Z" fill="currentColor"/>
  <path d="M204.728,172.508c-7.737-4.381-16.843-6.603-27.065-6.603-12.231,0-22.582,3.305-30.764,9.823-4.118,3.282-7.76,7.425-10.881,12.368v-94.416h-37.306v212.639h37.822v-76.698c0-6.584,1.261-12.262,3.749-16.874,2.458-4.562,5.869-8.078,10.136-10.449,4.307-2.393,9.303-3.605,14.849-3.605,8.227,0,14.469,2.475,19.083,7.565,4.604,5.082,6.939,12.247,6.939,21.297v78.765h37.952v-83.93c0-11.9-2.141-22.171-6.361-30.527-4.265-8.435-10.372-14.946-18.152-19.354Z" fill="currentColor"/>
  <rect x="260.626" y="167.713" width="37.822" height="138.606" fill="currentColor"/>
  <path d="M279.537,110.513c-5.867,0-10.981,1.995-15.201,5.93-4.261,3.974-6.422,8.906-6.422,14.66,0,5.578,2.157,10.442,6.412,14.458,4.219,3.983,9.337,6.004,15.211,6.004,5.957,0,11.118-2.02,15.341-6.004,4.254-4.017,6.411-8.924,6.411-14.586s-2.16-10.556-6.422-14.532c-4.222-3.935-9.38-5.929-15.33-5.929Z" fill="currentColor"/>
</svg>