<?xml version="1.0" encoding="UTF-8" standalone="no"?>
<!DOCTYPE svg PUBLIC "-//W3C//DTD SVG 1.1//EN" "http://www.w3.org/Graphics/SVG/1.1/DTD/svg11.dtd">
<svg width="100%" height="100%" viewBox="0 0 100 139" version="1.1" xmlns="http://www.w3.org/2000/svg" xmlns:xlink="http://www.w3.org/1999/xlink" xml:space="preserve" xmlns:serif="http://www.serif.com/" style="fill-rule:evenodd;clip-rule:evenodd;stroke-linejoin:round;stroke-miterlimit:1.41421;">
    <g transform="matrix(0.848493,0,0,0.854264,15.789,10.6706)">
        <path d="M143.3,89.2L143.3,39.3L146.9,39.3L146.9,69.5L176,39.2L180.2,39.2L159.4,61.1L181.2,89.2L177.1,89.2L157,63.3L146.8,73.8L146.8,89.2L143.3,89.2Z" style="fill:rgb(45,55,65);fill-rule:nonzero;"/>
        <path d="M202,89.9C199.4,89.9 197,89.4 194.8,88.4C192.6,87.4 190.7,86 189.1,84.2C187.5,82.4 186.2,80.4 185.3,78.1C184.4,75.8 183.9,73.3 183.9,70.7C183.9,68.1 184.4,65.7 185.3,63.4C186.2,61.1 187.5,59.1 189.1,57.4C190.7,55.7 192.6,54.3 194.8,53.4C197,52.4 199.4,51.9 201.9,51.9C204.5,51.9 206.9,52.4 209,53.4C211.2,54.4 213.1,55.8 214.7,57.5C216.3,59.2 217.6,61.2 218.5,63.5C219.4,65.8 219.9,68.2 219.9,70.7L219.9,72.3L187.7,72.3C187.8,74.4 188.3,76.4 189.2,78.2C190,80 191.1,81.6 192.4,82.9C193.7,84.2 195.2,85.2 196.9,86C198.6,86.8 200.4,87.1 202.3,87.1C203.6,87.1 204.8,86.9 206.1,86.6C207.3,86.2 208.5,85.8 209.5,85.2C210.6,84.6 211.5,83.9 212.3,83C213.1,82.1 213.8,81.2 214.2,80.1L217.3,80.9C216.7,82.2 216,83.4 214.9,84.5C213.9,85.6 212.7,86.6 211.4,87.4C210.1,88.2 208.6,88.8 207,89.3C205.4,89.6 203.7,89.9 202,89.9ZM216.4,69.4C216.3,67.2 215.8,65.3 215,63.5C214.2,61.7 213.1,60.2 211.8,58.9C210.5,57.6 209,56.6 207.3,55.9C205.6,55.2 203.8,54.8 201.9,54.8C200,54.8 198.2,55.2 196.5,55.9C194.8,56.6 193.3,57.6 192,58.9C190.7,60.2 189.7,61.7 188.9,63.5C188.1,65.3 187.7,67.3 187.5,69.4L216.4,69.4Z" style="fill:rgb(45,55,65);fill-rule:nonzero;"/>
        <path d="M228.6,101.6C229,101.6 229.6,101.6 230.5,101.5C231.3,101.5 231.9,101.3 232.4,101.1C232.6,101 232.8,100.8 233.1,100.4C233.4,100 233.7,99.4 234.1,98.6C234.5,97.8 235.1,96.6 235.7,95C236.4,93.5 237.2,91.5 238.2,89.1L221.9,52.5L225.6,52.5L240.1,85.7L253.7,52.5L257.1,52.5L237,100.6C236.3,102.3 235.4,103.4 234.2,103.9C233,104.4 231.7,104.7 230,104.7C229.8,104.7 229.5,104.7 229.3,104.7C229.1,104.7 228.8,104.7 228.6,104.6L228.6,101.6Z" style="fill:rgb(45,55,65);fill-rule:nonzero;"/>
        <path d="M265,89.2L265,39.2L268.6,39.2L268.6,85.9L298.4,85.9L298.4,89.1L265,89.1L265,89.2Z" style="fill:rgb(45,55,65);fill-rule:nonzero;"/>
        <path d="M305.1,44.3L305.1,37.8L308.6,37.8L308.6,44.3L305.1,44.3ZM305.1,89.2L305.1,52.6L308.6,52.6L308.6,89.2L305.1,89.2Z" style="fill:rgb(45,55,65);fill-rule:nonzero;"/>
        <path d="M349,89.2L345.5,89.2L345.5,68.8C345.5,64.1 344.8,60.6 343.5,58.5C342.2,56.3 340,55.3 337.1,55.3C335.6,55.3 334,55.6 332.5,56.1C331,56.7 329.6,57.5 328.3,58.5C327,59.5 325.9,60.7 324.9,62.1C323.9,63.5 323.2,65 322.7,66.6L322.7,89.3L319.2,89.3L319.2,52.7L322.4,52.7L322.4,61.4C323.2,60 324.1,58.7 325.2,57.6C326.3,56.5 327.6,55.5 328.9,54.6C330.3,53.8 331.7,53.1 333.3,52.7C334.9,52.3 336.5,52 338.1,52C342.1,52 344.9,53.4 346.5,56.2C348.1,59 349,63 349,68.2L349,89.2Z" style="fill:rgb(45,55,65);fill-rule:nonzero;"/>
        <path d="M374.7,89.9C372.1,89.9 369.7,89.4 367.5,88.4C365.3,87.4 363.4,86 361.8,84.2C360.2,82.4 358.9,80.4 358,78.1C357.1,75.8 356.6,73.3 356.6,70.7C356.6,68.1 357.1,65.7 358,63.4C358.9,61.1 360.2,59.1 361.8,57.4C363.4,55.7 365.3,54.3 367.5,53.4C369.7,52.4 372.1,51.9 374.6,51.9C377.2,51.9 379.6,52.4 381.7,53.4C383.9,54.4 385.8,55.8 387.4,57.5C389,59.2 390.3,61.2 391.2,63.5C392.1,65.8 392.6,68.2 392.6,70.7L392.6,72.3L360.4,72.3C360.5,74.4 361,76.4 361.9,78.2C362.7,80 363.8,81.6 365.1,82.9C366.4,84.2 367.9,85.2 369.6,86C371.3,86.8 373.1,87.1 375,87.1C376.3,87.1 377.5,86.9 378.8,86.6C380,86.2 381.2,85.8 382.2,85.2C383.3,84.6 384.2,83.9 385,83C385.8,82.1 386.5,81.2 386.9,80.1L390,80.9C389.4,82.2 388.7,83.4 387.6,84.5C386.6,85.6 385.4,86.6 384.1,87.4C382.8,88.2 381.3,88.8 379.7,89.3C378,89.6 376.4,89.9 374.7,89.9ZM389,69.4C388.9,67.2 388.4,65.3 387.6,63.5C386.8,61.7 385.7,60.2 384.4,58.9C383.1,57.6 381.6,56.6 379.9,55.9C378.2,55.2 376.4,54.8 374.5,54.8C372.6,54.8 370.8,55.2 369.1,55.9C367.4,56.6 365.9,57.6 364.6,58.9C363.3,60.2 362.3,61.7 361.5,63.5C360.7,65.3 360.3,67.3 360.1,69.4L389,69.4Z" style="fill:rgb(45,55,65);fill-rule:nonzero;"/>
        <path d="M411.5,89.9C408.7,89.9 406,89.4 403.4,88.5C400.8,87.6 398.6,86.2 396.6,84.3L398.4,81.9C400.4,83.7 402.4,85 404.5,85.8C406.6,86.6 408.9,87.1 411.5,87.1C414.7,87.1 417.3,86.4 419.2,85.1C421.1,83.8 422.1,81.9 422.1,79.5C422.1,78.4 421.9,77.4 421.4,76.6C420.9,75.8 420.2,75.2 419.2,74.6C418.2,74.1 417,73.6 415.5,73.2C414,72.8 412.4,72.3 410.4,71.9C408.3,71.4 406.5,71 405,70.5C403.5,70 402.2,69.5 401.2,68.8C400.2,68.1 399.5,67.3 399,66.4C398.5,65.5 398.3,64.3 398.3,62.8C398.3,61 398.7,59.4 399.4,58C400.1,56.6 401.1,55.5 402.3,54.6C403.5,53.7 405,53 406.6,52.6C408.2,52.2 409.9,51.9 411.8,51.9C414.7,51.9 417.2,52.4 419.4,53.3C421.6,54.3 423.3,55.5 424.5,57L422.5,58.9C421.3,57.5 419.7,56.4 417.7,55.7C415.8,55 413.7,54.6 411.5,54.6C410.1,54.6 408.9,54.7 407.7,55C406.5,55.3 405.5,55.7 404.6,56.3C403.7,56.9 403,57.7 402.5,58.7C402,59.7 401.7,60.8 401.7,62.1C401.7,63.2 401.9,64 402.2,64.7C402.6,65.4 403.1,65.9 403.9,66.4C404.7,66.9 405.7,67.3 406.9,67.6C408.1,68 409.6,68.3 411.3,68.8C413.6,69.4 415.6,69.9 417.4,70.4C419.2,70.9 420.7,71.6 421.9,72.3C423.1,73.1 424,73.9 424.6,75C425.2,76 425.6,77.3 425.6,78.9C425.6,82.2 424.3,84.8 421.8,86.7C419.2,88.9 415.8,89.9 411.5,89.9Z" style="fill:rgb(45,55,65);fill-rule:nonzero;"/>
        <g transform="matrix(1.17655,0,0,1.17655,-18.984,-12.4274)">
            <rect x="0" y="0.1" width="103.2" height="138.7" style="fill:rgb(0,201,128);"/>
            <path d="M103.3,111.7C92.6,116.9 77.7,122.5 59.7,125.4C35.8,129.2 15.1,126.7 0.1,123.2L0.1,138.8L103.3,138.8L103.3,111.7Z" style="fill:rgb(89,220,172);fill-rule:nonzero;"/>
            <path d="M93.5,37.8C98.6,50.7 101.6,62.8 103.3,73.6L103.3,0L72.2,0C79.5,9.7 87.3,22.3 93.5,37.8Z" style="fill:rgb(89,220,172);fill-rule:nonzero;"/>
            <path d="M81.2,13.4C76.8,29.8 68.8,48.9 54.2,67.1C36.2,89.4 15.2,101.9 0,108.7L0,123.2C15,126.7 35.7,129.2 59.6,125.4C77.6,122.5 92.5,116.9 103.2,111.7L103.2,73.7C101.5,62.9 98.6,50.8 93.4,37.9C89.8,28.7 85.6,20.5 81.2,13.4Z" style="fill:rgb(46,211,151);fill-rule:nonzero;"/>
            <path d="M87.7,37.5L15.5,37.5L15.5,54.6L39.7,54.6C39.7,67.9 28.9,78.7 15.5,78.7L15.5,95.7C31,95.7 44.6,87.1 51.6,74.4C58.6,87.1 72.1,95.7 87.7,95.7L87.7,78.7C74.4,78.7 63.5,67.9 63.5,54.6L87.7,54.6L87.7,37.5Z" style="fill:white;fill-rule:nonzero;"/>
        </g>
    </g>
</svg>
