<svg version="1.1" id="Layer_1" xmlns:x="ns_extend;" xmlns:i="ns_ai;" xmlns:graph="ns_graphs;" xmlns="http://www.w3.org/2000/svg" xmlns:xlink="http://www.w3.org/1999/xlink" x="0px" y="0px" viewBox="0 0 41.4 45" style="enable-background:new 0 0 41.4 45;" xml:space="preserve">
 <style type="text/css">
  .st0{enable-background:new    ;}
	.st1{fill:#0056E3;}
 </style>
 <metadata>
  <sfw xmlns="ns_sfw;">
   <slices>
   </slices>
   <sliceSourceBounds bottomLeftOrigin="true" height="45" width="41.4" x="-31.1" y="71.1">
   </sliceSourceBounds>
  </sfw>
 </metadata>
 <g class="st0">
  <path class="st1" d="M29.9,45c-3.7,0-6.9-1.6-9.3-4.5c-2.5,3-5.6,4.5-9.3,4.5C5,45,0,39.9,0,33.7c0-2.7,0.9-5.3,2.7-7.6l0.1-0.1
		l3.1-3.8L3.2,19l0,0c-1.8-2.3-2.8-4.9-2.8-7.5C0.4,5.2,5.5,0,11.8,0c0,0,0.1,0,0.1,0c3.5,0,6.6,1.4,8.9,4c2.4-2.7,5.4-4,8.9-4
		C35.9,0,41,5,41,11.3c0,2.7-0.9,5.3-2.7,7.6l-0.1,0.1l-2.7,3.2l3.1,3.8c1.8,2.3,2.8,4.9,2.8,7.5c0,6.3-5,11.4-11.3,11.5
		C30,45,29.9,45,29.9,45 M20.6,37L20.6,37c0.4,0,0.8,0.2,1,0.5l0.8,1c1.9,2.5,4.5,3.8,7.5,3.8c4.9,0,8.8-3.9,8.9-8.7
		c0,0,0-0.1,0-0.1c0-2.1-0.8-4.1-2.2-5.9L32.8,23c-0.4-0.5-0.4-1.2,0-1.7l3.4-4.2c1.4-1.8,2.2-3.8,2.2-5.9c0-4.8-3.9-8.6-8.6-8.6
		c-3,0-5.6,1.3-7.6,3.9l-0.3,0.4c-0.3,0.3-0.6,0.5-1.1,0.5c-0.4,0-0.8-0.2-1.1-0.5l-0.3-0.5c-1.9-2.5-4.5-3.8-7.5-3.8
		c-4.9,0-8.8,3.8-8.9,8.7c0,0,0,0.1,0,0.1c0,2.1,0.8,4.1,2.2,5.9l3.4,4.1c0.4,0.5,0.4,1.2,0,1.7l-3.8,4.7c-1.4,1.8-2.2,3.8-2.2,5.9
		c0,4.8,3.9,8.6,8.6,8.6c3,0,5.6-1.3,7.6-3.9l0.7-0.9C19.8,37.2,20.2,37,20.6,37 M29.9,45c-3.7,0-6.9-1.6-9.3-4.5
		c-2.5,3-5.6,4.5-9.3,4.5C5,45,0,39.9,0,33.7c0-2.7,0.9-5.3,2.7-7.6l0.1-0.1l3.1-3.8L3.2,19l0,0c-1.8-2.3-2.8-4.9-2.8-7.5
		C0.4,5.2,5.5,0,11.8,0c0,0,0.1,0,0.1,0c3.5,0,6.6,1.4,8.9,4c2.4-2.7,5.4-4,8.9-4C35.9,0,41,5,41,11.3c0,2.7-0.9,5.3-2.7,7.6
		l-0.1,0.1l-2.7,3.2l3.1,3.8c1.8,2.3,2.8,4.9,2.8,7.5c0,6.3-5,11.4-11.3,11.5C30,45,29.9,45,29.9,45 M20.6,37L20.6,37
		c0.4,0,0.8,0.2,1,0.5l0.8,1c1.9,2.5,4.5,3.8,7.5,3.8c4.9,0,8.8-3.9,8.9-8.7c0,0,0-0.1,0-0.1c0-2.1-0.8-4.1-2.2-5.9L32.8,23
		c-0.4-0.5-0.4-1.2,0-1.7l3.4-4.2c1.4-1.8,2.2-3.8,2.2-5.9c0-4.8-3.9-8.6-8.6-8.6c-3,0-5.6,1.3-7.6,3.9l-0.3,0.4
		c-0.3,0.3-0.6,0.5-1.1,0.5c-0.4,0-0.8-0.2-1.1-0.5l-0.3-0.5c-1.9-2.5-4.5-3.8-7.5-3.8c-4.9,0-8.8,3.8-8.9,8.7c0,0,0,0.1,0,0.1
		c0,2.1,0.8,4.1,2.2,5.9l3.4,4.1c0.4,0.5,0.4,1.2,0,1.7l-3.8,4.7c-1.4,1.8-2.2,3.8-2.2,5.9c0,4.8,3.9,8.6,8.6,8.6
		c3,0,5.6-1.3,7.6-3.9l0.7-0.9C19.8,37.2,20.2,37,20.6,37 M29.9,41.4c-2.7,0-5-1.2-6.7-3.4l-2.6-3.4l-2.5,3.3
		c-0.7,0.9-2.8,3.5-6.8,3.5c-4.2,0-7.7-3.4-7.7-7.7c0-1.9,0.6-3.7,2-5.4l0,0l4.9-6L6,16.8c-1.3-1.6-2-3.5-2-5.3
		c0-4.3,3.4-7.8,7.8-7.9c0,0,0.1,0,0.1,0c2.7,0,5,1.2,6.7,3.4l2.2,2.9l2.1-2.8v0c0.7-0.9,2.8-3.5,6.8-3.5c4.2,0,7.7,3.5,7.7,7.7
		c0,1.9-0.6,3.7-2,5.4l0,0l-4.5,5.5l4.9,6c1.3,1.6,2,3.5,2,5.3c0,4.3-3.4,7.8-7.8,7.9C30,41.4,30,41.4,29.9,41.4 M20.6,31.1
		L20.6,31.1c0.4,0,0.8,0.2,1,0.5l3.6,4.8c1.2,1.6,2.7,2.4,4.6,2.4c2.9,0,5.2-2.3,5.3-5.1c0,0,0-0.1,0-0.1c0-1.2-0.5-2.5-1.4-3.7
		L28.2,23c-0.4-0.5-0.4-1.2,0-1.7l5.2-6.4c1-1.2,1.4-2.4,1.4-3.7c0-2.8-2.2-5.1-5-5.1c-2.5,0-3.8,1.3-4.8,2.5l-3.1,4.2
		c-0.4,0.6-1.3,0.7-1.8,0.3c-0.1-0.1-0.2-0.2-0.3-0.3l-3.2-4.3c-1.2-1.6-2.7-2.4-4.6-2.4c-2.9,0-5.2,2.3-5.3,5.2c0,0,0,0.1,0,0.1
		c0,1.2,0.5,2.5,1.4,3.7l5.2,6.3c0.4,0.5,0.4,1.2,0,1.7L7.6,30c-1,1.2-1.4,2.4-1.4,3.7c0,2.8,2.2,5.1,5,5.1c2.5,0,3.8-1.3,4.8-2.5
		l3.6-4.6C19.8,31.3,20.2,31.1,20.6,31.1 M29.9,45c-3.7,0-6.9-1.6-9.3-4.5c-2.5,3-5.6,4.5-9.3,4.5C5,45,0,39.9,0,33.7
		c0-2.7,0.9-5.3,2.7-7.6l0.1-0.1l3.1-3.8L3.2,19l0,0c-1.8-2.3-2.8-4.9-2.8-7.5C0.4,5.2,5.5,0,11.8,0c0,0,0.1,0,0.1,0
		c3.5,0,6.6,1.4,8.9,4c2.4-2.7,5.4-4,8.9-4C35.9,0,41,5,41,11.3c0,2.7-0.9,5.3-2.7,7.6l-0.1,0.1l-2.7,3.2l3.1,3.8
		c1.8,2.3,2.8,4.9,2.8,7.5c0,6.3-5,11.4-11.3,11.5C30,45,29.9,45,29.9,45 M20.6,37L20.6,37c0.4,0,0.8,0.2,1,0.5l0.8,1
		c1.9,2.5,4.5,3.8,7.5,3.8c4.9,0,8.8-3.9,8.9-8.7c0,0,0-0.1,0-0.1c0-2.1-0.8-4.1-2.2-5.9L32.8,23c-0.4-0.5-0.4-1.2,0-1.7l3.4-4.2
		c1.4-1.8,2.2-3.8,2.2-5.9c0-4.8-3.9-8.6-8.6-8.6c-3,0-5.6,1.3-7.6,3.9l-0.3,0.4c-0.3,0.3-0.6,0.5-1.1,0.5c-0.4,0-0.8-0.2-1.1-0.5
		l-0.3-0.5c-1.9-2.5-4.5-3.8-7.5-3.8c-4.9,0-8.8,3.8-8.9,8.7c0,0,0,0.1,0,0.1c0,2.1,0.8,4.1,2.2,5.9l3.4,4.1c0.4,0.5,0.4,1.2,0,1.7
		l-3.8,4.7c-1.4,1.8-2.2,3.8-2.2,5.9c0,4.8,3.9,8.6,8.6,8.6c3,0,5.6-1.3,7.6-3.9l0.7-0.9C19.8,37.2,20.2,37,20.6,37 M29.9,41.4
		c-2.7,0-5-1.2-6.7-3.4l-2.6-3.4l-2.5,3.3c-0.7,0.9-2.8,3.5-6.8,3.5c-4.2,0-7.7-3.4-7.7-7.7c0-1.9,0.6-3.7,2-5.4l0,0l4.9-6L6,16.8
		c-1.3-1.6-2-3.5-2-5.3c0-4.3,3.4-7.8,7.8-7.9c0,0,0.1,0,0.1,0c2.7,0,5,1.2,6.7,3.4l2.2,2.9l2.1-2.8v0c0.7-0.9,2.8-3.5,6.8-3.5
		c4.2,0,7.7,3.5,7.7,7.7c0,1.9-0.6,3.7-2,5.4l0,0l-4.5,5.5l4.9,6c1.3,1.6,2,3.5,2,5.3c0,4.3-3.4,7.8-7.8,7.9
		C30,41.4,30,41.4,29.9,41.4 M20.6,31.1L20.6,31.1c0.4,0,0.8,0.2,1,0.5l3.6,4.8c1.2,1.6,2.7,2.4,4.6,2.4c2.9,0,5.2-2.3,5.3-5.1
		c0,0,0-0.1,0-0.1c0-1.2-0.5-2.5-1.4-3.7L28.2,23c-0.4-0.5-0.4-1.2,0-1.7l5.2-6.4c1-1.2,1.4-2.4,1.4-3.7c0-2.8-2.2-5.1-5-5.1
		c-2.5,0-3.8,1.3-4.8,2.5l-3.1,4.2c-0.4,0.6-1.3,0.7-1.8,0.3c-0.1-0.1-0.2-0.2-0.3-0.3l-3.2-4.3c-1.2-1.6-2.7-2.4-4.6-2.4
		c-2.9,0-5.2,2.3-5.3,5.2c0,0,0,0.1,0,0.1c0,1.2,0.5,2.5,1.4,3.7l5.2,6.3c0.4,0.5,0.4,1.2,0,1.7L7.6,30c-1,1.2-1.4,2.4-1.4,3.7
		c0,2.8,2.2,5.1,5,5.1c2.5,0,3.8-1.3,4.8-2.5l3.6-4.6C19.8,31.3,20.2,31.1,20.6,31.1 M29.9,41.4c-2.7,0-5-1.2-6.7-3.4l-2.6-3.4
		l-2.5,3.3c-0.7,0.9-2.8,3.5-6.8,3.5c-4.2,0-7.7-3.4-7.7-7.7c0-1.9,0.6-3.7,2-5.4l0,0l4.9-6L6,16.8c-1.3-1.6-2-3.5-2-5.3
		c0-4.3,3.4-7.8,7.8-7.9c0,0,0.1,0,0.1,0c2.7,0,5,1.2,6.7,3.4l2.2,2.9l2.1-2.8v0c0.7-0.9,2.8-3.5,6.8-3.5c4.2,0,7.7,3.5,7.7,7.7
		c0,1.9-0.6,3.7-2,5.4l0,0l-4.5,5.5l4.9,6c1.3,1.6,2,3.5,2,5.3c0,4.3-3.4,7.8-7.8,7.9C30,41.4,30,41.4,29.9,41.4 M20.6,31.1
		L20.6,31.1c0.4,0,0.8,0.2,1,0.5l3.6,4.8c1.2,1.6,2.7,2.4,4.6,2.4c2.9,0,5.2-2.3,5.3-5.1c0,0,0-0.1,0-0.1c0-1.2-0.5-2.5-1.4-3.7
		L28.2,23c-0.4-0.5-0.4-1.2,0-1.7l5.2-6.4c0.9-1.2,1.4-2.4,1.4-3.7c0-2.8-2.2-5.1-5-5.1c-2.5,0-3.8,1.3-4.8,2.5l-3.1,4.1
		c-0.4,0.6-1.3,0.7-1.8,0.3c-0.1-0.1-0.2-0.2-0.3-0.3l-3.2-4.3c-1.2-1.6-2.7-2.4-4.6-2.4c-2.9,0-5.2,2.3-5.3,5.2c0,0,0,0.1,0,0.1
		c0,1.2,0.5,2.5,1.4,3.7l5.2,6.3c0.4,0.5,0.4,1.2,0,1.7L7.6,30c-1,1.2-1.4,2.4-1.4,3.7c0,2.8,2.2,5.1,5,5.1c2.5,0,3.8-1.3,4.8-2.5
		l3.6-4.6C19.8,31.3,20.2,31.1,20.6,31.1 M29.9,37.8c-2,0-3.1-1-3.9-2l-5.4-7.1l-5.4,7c-0.8,1.1-2,2.2-4,2.2c-1,0-2-0.4-2.8-1.1
		c-0.8-0.8-1.3-1.9-1.3-3c0-1.1,0.4-2.1,1.2-3.1l0,0l6.8-8.3l-6.3-7.7v0c-0.8-1-1.2-2-1.2-3.1c0-2.3,1.8-4.3,4.1-4.3
		c0.1,0,0.1,0,0.2,0c2,0,3.1,1,3.9,2l5,6.7l5-6.5c0.8-1.1,2-2.2,4-2.2c1,0,2,0.4,2.8,1.1c0.8,0.8,1.3,1.9,1.3,3
		c0,1.1-0.4,2.1-1.2,3.1l0,0l-6.3,7.8l6.8,8.3c0.8,1,1.2,2,1.2,3.1c0,2.3-1.8,4.3-4.1,4.3C30,37.8,30,37.8,29.9,37.8 M20.6,25.2
		L20.6,25.2c0.4,0,0.8,0.2,1,0.5l6.5,8.5c0.6,0.8,1,1,1.8,1c0.9,0,1.6-0.6,1.7-1.5c0-0.1,0-0.1,0-0.2c0-0.5-0.3-1.1-0.6-1.4L23.6,23
		c-0.4-0.5-0.4-1.2,0-1.7l7-8.6c0.4-0.6,0.6-1,0.6-1.5c0-0.8-0.6-1.5-1.4-1.5c0,0,0,0,0,0c-0.8,0-1.2,0.3-1.9,1.1l-6,7.9
		c-0.3,0.3-0.6,0.5-1.1,0.5c-0.4,0-0.8-0.2-1-0.5l-6-8c-0.6-0.8-1-1-1.8-1c-0.9,0-1.6,0.6-1.7,1.5c0,0.1,0,0.1,0,0.2
		c0,0.5,0.3,1.1,0.6,1.4l7,8.5c0.4,0.5,0.4,1.2,0,1.7l-7.5,9.1c-0.4,0.6-0.6,1-0.6,1.5c0,0.8,0.6,1.5,1.4,1.5c0,0,0,0,0,0
		c0.8,0,1.2-0.3,1.9-1.1l6.4-8.3C19.8,25.4,20.2,25.2,20.6,25.2">
  </path>
 </g>
</svg>